<?xml version="1.0" encoding="UTF-8" standalone="no"?>
<!DOCTYPE svg PUBLIC "-//W3C//DTD SVG 1.1//EN"
 "http://www.w3.org/Graphics/SVG/1.1/DTD/svg11.dtd">
<!-- Generated by graphviz version 2.38.0 (20140413.2041)
 -->
<!-- Title: models_diagram Pages: 1 -->
<svg width="480pt" height="246pt"
 viewBox="0.00 0.00 480.31 246.00" xmlns="http://www.w3.org/2000/svg" xmlns:xlink="http://www.w3.org/1999/xlink">
<g id="graph0" class="graph" transform="scale(1 1) rotate(0) translate(4 242)">
<title>models_diagram</title>
<polygon fill="none" stroke="none" points="-4,4 -4,-242 476.312,-242 476.312,4 -4,4"/>
<!-- _diagram_info -->
<g id="node1" class="node"><title>_diagram_info</title>
<text text-anchor="start" x="8" y="-216.6" font-family="Times,serif" font-size="13.00">Models diagram</text>
<text text-anchor="start" x="8" y="-203.6" font-family="Times,serif" font-size="13.00">Date: Jul 11 2016 &#45; 20:39</text>
<text text-anchor="start" x="8" y="-190.6" font-family="Times,serif" font-size="13.00">Migration version: 20160711234030</text>
<text text-anchor="start" x="8" y="-177.6" font-family="Times,serif" font-size="13.00">Generated by RailRoady 1.4.2</text>
<text text-anchor="start" x="8" y="-164.6" font-family="Times,serif" font-size="13.00">http://railroady.prestonlee.com</text>
</g>
<!-- Category -->
<g id="node2" class="node"><title>Category</title>
<path fill="none" stroke="black" d="M236.587,-151.5C236.587,-151.5 460.312,-151.5 460.312,-151.5 466.312,-151.5 472.312,-157.5 472.312,-163.5 472.312,-163.5 472.312,-225.5 472.312,-225.5 472.312,-231.5 466.312,-237.5 460.312,-237.5 460.312,-237.5 236.587,-237.5 236.587,-237.5 230.587,-237.5 224.587,-231.5 224.587,-225.5 224.587,-225.5 224.587,-163.5 224.587,-163.5 224.587,-157.5 230.587,-151.5 236.587,-151.5"/>
<text text-anchor="middle" x="348.45" y="-222.3" font-family="Times,serif" font-size="14.00">Category</text>
<polyline fill="none" stroke="black" points="224.587,-215.5 472.312,-215.5 "/>
<text text-anchor="start" x="232.587" y="-200.3" font-family="Times,serif" font-size="14.00">id :integer</text>
<text text-anchor="start" x="232.587" y="-186.3" font-family="Times,serif" font-size="14.00">name :character varying</text>
<text text-anchor="start" x="232.587" y="-172.3" font-family="Times,serif" font-size="14.00">created_at :timestamp without time zone</text>
<text text-anchor="start" x="232.587" y="-158.3" font-family="Times,serif" font-size="14.00">updated_at :timestamp without time zone</text>
</g>
<!-- Movie -->
<g id="node3" class="node"><title>Movie</title>
<path fill="none" stroke="black" d="M236.587,-0.5C236.587,-0.5 460.312,-0.5 460.312,-0.5 466.312,-0.5 472.312,-6.5 472.312,-12.5 472.312,-12.5 472.312,-102.5 472.312,-102.5 472.312,-108.5 466.312,-114.5 460.312,-114.5 460.312,-114.5 236.587,-114.5 236.587,-114.5 230.587,-114.5 224.587,-108.5 224.587,-102.5 224.587,-102.5 224.587,-12.5 224.587,-12.5 224.587,-6.5 230.587,-0.5 236.587,-0.5"/>
<text text-anchor="middle" x="348.45" y="-99.3" font-family="Times,serif" font-size="14.00">Movie</text>
<polyline fill="none" stroke="black" points="224.587,-92.5 472.312,-92.5 "/>
<text text-anchor="start" x="232.587" y="-77.3" font-family="Times,serif" font-size="14.00">id :integer</text>
<text text-anchor="start" x="232.587" y="-63.3" font-family="Times,serif" font-size="14.00">name :character varying</text>
<text text-anchor="start" x="232.587" y="-49.3" font-family="Times,serif" font-size="14.00">created_at :timestamp without time zone</text>
<text text-anchor="start" x="232.587" y="-35.3" font-family="Times,serif" font-size="14.00">updated_at :timestamp without time zone</text>
<text text-anchor="start" x="232.587" y="-21.3" font-family="Times,serif" font-size="14.00">category_id :integer</text>
<text text-anchor="start" x="232.587" y="-7.3" font-family="Times,serif" font-size="14.00">recommended :boolean</text>
</g>
<!-- Category&#45;&gt;Movie -->
<g id="edge1" class="edge"><title>Category&#45;&gt;Movie</title>
<path fill="none" stroke="#98f7a9" d="M348.45,-143.113C348.45,-137.149 348.45,-130.994 348.45,-124.852"/>
<ellipse fill="none" stroke="#98f7a9" cx="348.45" cy="-147.156" rx="4" ry="4"/>
<polygon fill="#98f7a9" stroke="#98f7a9" points="348.45,-124.563 352.95,-114.563 348.45,-119.563 348.45,-114.563 348.45,-114.563 348.45,-114.563 348.45,-119.563 343.95,-114.563 348.45,-124.563 348.45,-124.563"/>
</g>
</g>
</svg>
