<?xml version="1.0" encoding="UTF-8" standalone="no"?>
<!DOCTYPE svg PUBLIC "-//W3C//DTD SVG 1.1//EN"
 "http://www.w3.org/Graphics/SVG/1.1/DTD/svg11.dtd">
<!-- Generated by graphviz version 2.38.0 (20140413.2041)
 -->
<!-- Title: models_diagram Pages: 1 -->
<svg width="318pt" height="153pt"
 viewBox="0.00 0.00 317.97 153.00" xmlns="http://www.w3.org/2000/svg" xmlns:xlink="http://www.w3.org/1999/xlink">
<g id="graph0" class="graph" transform="scale(1 1) rotate(0) translate(4 149)">
<title>models_diagram</title>
<polygon fill="none" stroke="none" points="-4,4 -4,-149 313.972,-149 313.972,4 -4,4"/>
<!-- _diagram_info -->
<g id="node1" class="node"><title>_diagram_info</title>
<text text-anchor="start" x="8" y="-130.6" font-family="Times,serif" font-size="13.00">Models diagram</text>
<text text-anchor="start" x="8" y="-117.6" font-family="Times,serif" font-size="13.00">Date: Jul 11 2016 &#45; 20:39</text>
<text text-anchor="start" x="8" y="-104.6" font-family="Times,serif" font-size="13.00">Migration version: 20160711234030</text>
<text text-anchor="start" x="8" y="-91.6" font-family="Times,serif" font-size="13.00">Generated by RailRoady 1.4.2</text>
<text text-anchor="start" x="8" y="-78.6" font-family="Times,serif" font-size="13.00">http://railroady.prestonlee.com</text>
</g>
<!-- Category -->
<g id="node2" class="node"><title>Category</title>
<ellipse fill="none" stroke="black" cx="267.45" cy="-108.5" rx="42.5456" ry="18"/>
<text text-anchor="middle" x="267.45" y="-104.3" font-family="Times,serif" font-size="14.00">Category</text>
</g>
<!-- Movie -->
<g id="node3" class="node"><title>Movie</title>
<ellipse fill="none" stroke="black" cx="267.45" cy="-18" rx="33.3925" ry="18"/>
<text text-anchor="middle" x="267.45" y="-13.8" font-family="Times,serif" font-size="14.00">Movie</text>
</g>
<!-- Category&#45;&gt;Movie -->
<g id="edge1" class="edge"><title>Category&#45;&gt;Movie</title>
<path fill="none" stroke="#4652b8" d="M267.45,-82.189C267.45,-70.9711 267.45,-57.7517 267.45,-46.3113"/>
<ellipse fill="none" stroke="#4652b8" cx="267.45" cy="-86.4363" rx="4" ry="4"/>
<polygon fill="#4652b8" stroke="#4652b8" points="267.45,-46.0113 271.95,-36.0113 267.45,-41.0113 267.45,-36.0113 267.45,-36.0113 267.45,-36.0113 267.45,-41.0113 262.95,-36.0113 267.45,-46.0113 267.45,-46.0113"/>
</g>
</g>
</svg>
